<?xml version="1.0" encoding="UTF-8" standalone="no"?>
<svg
   xmlns:dc="http://purl.org/dc/elements/1.1/"
   xmlns:cc="http://creativecommons.org/ns#"
   xmlns:rdf="http://www.w3.org/1999/02/22-rdf-syntax-ns#"
   xmlns:svg="http://www.w3.org/2000/svg"
   xmlns="http://www.w3.org/2000/svg"
   xmlns:sodipodi="http://sodipodi.sourceforge.net/DTD/sodipodi-0.dtd"
   xmlns:inkscape="http://www.inkscape.org/namespaces/inkscape"
   version="1.1"
   width="647.03015"
   height="794.46387"
   viewBox="0 0 647.03015 794.46387"
   id="svg163"
   sodipodi:docname="logoName.svg"
   inkscape:version="0.92.4 (5da689c313, 2019-01-14)">
  <metadata
     id="metadata169">
    <rdf:RDF>
      <cc:Work
         rdf:about="">
        <dc:format>image/svg+xml</dc:format>
        <dc:type
           rdf:resource="http://purl.org/dc/dcmitype/StillImage" />
        <dc:title></dc:title>
      </cc:Work>
    </rdf:RDF>
  </metadata>
  <defs
     id="defs167" />
  <sodipodi:namedview
     pagecolor="#ffffff"
     bordercolor="#666666"
     borderopacity="1"
     objecttolerance="10"
     gridtolerance="10"
     guidetolerance="10"
     inkscape:pageopacity="0"
     inkscape:pageshadow="2"
     inkscape:window-width="1536"
     inkscape:window-height="801"
     id="namedview165"
     showgrid="false"
     inkscape:zoom="0.69513991"
     inkscape:cx="-244.9842"
     inkscape:cy="706.92635"
     inkscape:window-x="-8"
     inkscape:window-y="1072"
     inkscape:window-maximized="1"
     inkscape:current-layer="svg163"
     fit-margin-top="0"
     fit-margin-left="0"
     fit-margin-right="0"
     fit-margin-bottom="0" />
  <g
     id="layer1"
     transform="matrix(0.71079832,0,0,0.72545644,406.85158,-332.44227)"
     style="display:inline">
    <g
       style="fill:#000000;fill-opacity:1;stroke-linejoin:miter"
       id="g4">
      <path
         d="m 139.58556,1226.1624 -4.88176,20.1304 q -22.07108,90.8032 -29.83786,131.8595 -10.10732,50.9629 -10.295956,81.0026 0.04625,19.6671 3.119316,30.568 3.07308,10.9009 7.24619,14.6169 11.54654,9.6529 18.12116,-21.0291 2.37565,-11.4408 3.48913,-27.7711 3.24032,-60.9164 4.93719,-84.9749 2.25586,-34.8729 11.03838,-148.4635 -2.87448,154.9405 -5.44677,200.4123 -1.55192,32.6491 -3.83374,54.7395 -3.12231,25.4147 -4.10874,27.6137 -1.59868,7.4099 -3.57902,12.635 -0.70021,3.8374 -6.97119,11.229 -10.3158,7.1975 -20.91272,-2.6014 -7.13482,-6.4108 -11.573764,-21.7959 l -1.809266,-8.3937 -1.18222,-9.6838 -0.458496,-11.0301 0.3619,-12.4322 1.300326,-14.2893 2.19107,-15.706 3.00084,-16.9935 q 3.40572,-17.6374 8.10708,-37.3352 11.42948,-48.7295 41.97892,-152.3072"
         id="path2"
         inkscape:connector-curvature="0" />
    </g>
    <g
       style="fill:#000000;fill-opacity:1;stroke-linejoin:miter"
       id="g8">
      <path
         d="m 83.92878,1503.5404 0.66395,2.061 q 4.214216,13.7699 8.23808,19.2287 3.49794,5.1426 12.6674,7.4226 -17.76471,32.6773 -35.12761,14.8019 -2.62579,-2.9493 -4.74507,-7.7065 l -1.911228,-5.2877 q -1.743882,-5.7788 -2.492657,-13.8362 l -0.418575,-8.7056 0.241844,-10.0019 0.983686,-11.3766 1.78196,-12.7966 q 2.19359,-13.5232 5.7593,-29.4684 1.1311,-6.8221 13.098376,-52.0743 15.876914,-56.9791 35.458544,-120.4978 -44.853045,179.7755 -47.948016,207.0696 -1.132354,7.5858 -1.676344,14.2022 l -0.377855,6.3794 q -0.221229,6.1397 0.260215,11.3419 0.52564,5.3351 1.65332,9.2221 0.30166,2.5404 4.46923,10.2847 11.05117,14.0741 15.70849,6.5974 0.64811,-1.6243 0.6864,-4.112 0.30881,-0.8338 -0.95235,-8.9736 -2.18727,-10.7218 -6.02109,-23.7743"
         id="path6"
         inkscape:connector-curvature="0" />
    </g>
    <g
       style="fill:#000000;fill-opacity:1;stroke-linejoin:miter"
       id="g12">
      <path
         d="m 58.190594,1493.6305 -0.156872,3.2416 q -1.151295,21.5422 -0.511299,31.2978 0.466537,9.0392 4.223067,16.9827 -14.796,1.9158 -21.567683,-5.4105 -10.225712,-9.7817 -18.300696,-38.2013 -5.600669,-21.1616 -4.545253,-46.2083 0.572142,-27.2095 17.790178,-58.3075 13.784244,-26.4936 70.346854,-100.1019 -38.79122,51.7994 -54.44879,80.131 -6.400803,11.343 -11.423993,22.5819 l -4.592687,11.2063 q -4.205246,11.177 -6.516276,22.2107 -4.274101,22.3464 -2.02597,42.3681 l 1.259302,9.6 q 1.557978,9.3485 3.874821,17.2661 1.011013,5.1718 7.568346,19.4708 6.966343,13.4006 11.579307,8.3006 3.94318,-2.5016 7.447644,-36.4281"
         id="path10"
         inkscape:connector-curvature="0" />
    </g>
    <g
       style="fill:#000000;fill-opacity:1;stroke-linejoin:miter"
       id="g16">
      <path
         d="m 14.346907,1466.4265 0.03084,1.5568 q -0.204075,16.9603 3.847143,32.15 -10.147533,1.5649 -19.9142946,1.9171 -6.4876744,0.16 -12.5240694,-1.1173 -6.625389,-1.4222 -12.461333,-5.3589 -5.450801,-3.7197 -10.411101,-9.0017 -7.402154,-8.045 -14.390466,-17.4082 9.692266,-7.0473 15.969304,-13.9316 6.021717,-6.2847 20.926969,-25.5755 -10.781118,24.7356 -12.644365,38.5357 -0.714394,6.0962 0.3083,11.0295 0.497745,2.4596 1.342445,4.5868 l 0.916397,2.0374 q 0.995616,1.9506 2.247973,3.5277 8.739095,10.0499 20.8050809,3.2279 4.5220904,-2.7561 7.8898911,-8.0503 3.852935,-6.025 8.061288,-18.1254"
         id="path14"
         inkscape:connector-curvature="0" />
    </g>
    <g
       style="fill:#000000;fill-opacity:1;stroke-linejoin:miter"
       id="g20">
      <path
         d="m 38.572144,1246.9485 -12.121777,15.9411 q -71.725467,94.8556 -84.910923,118.0339 -25.13279,40.4725 -28.445114,57.8078 -4.7901,19.9892 2.47016,25.32 8.08799,5.3313 23.66595,-6.8542 8.22084,-5.139 34.95191,-36.3112 23.8674058,-29.1458 50.08663,-64.2672 -25.8091337,45.8284 -47.15187,74.3419 -38.757827,50.299 -61.72813,49.9334 -7.11916,-1.0224 -9.414386,-3.5728 -3.313654,-2.6591 -5.540874,-7.1673 l -1.87156,-4.9415 q -1.55793,-5.3894 -1.52512,-12.4559 l 0.51455,-7.4572 q 0.95425,-7.8622 4.00354,-17.2297 9.43729,-28.4662 39.806244,-67.8636 17.262783,-24.7022 97.21077,-113.2575"
         id="path18"
         inkscape:connector-curvature="0" />
    </g>
    <g
       style="fill:#000000;fill-opacity:1;stroke-linejoin:miter"
       id="g24">
      <path
         d="m -85.6344,1394.7594 -0.981376,1.754 q -6.481594,11.4307 -9.848679,19.0205 -3.072731,6.7696 -7.017325,19.6728 -16.32852,-0.753 -22.36786,-1.9198 -8.36,-1.2852 -14.37146,-4.6387 -2.96379,-1.7138 -5.0888,-4.1662 l -1.87339,-2.674 -1.38411,-3.1051 q -1.13246,-3.3267 -1.42618,-7.3921 -0.50352,-8.2046 1.34151,-18.4778 1.15312,-7.5017 6.08045,-26.9757 12.31698,-4.7612 18.64321,-8.9808 6.29628,-3.8915 19.22427,-15.3525 -24.33001,29.7918 -28.51948,40.6344 -3.47871,7.4593 -3.85063,13.8829 -0.32992,6.4298 1.69057,11.212 0.98134,2.3713 2.37697,4.2113 l 1.47032,1.6874 q 1.55943,1.5445 3.35982,2.4385 4.00173,1.9205 8.77004,0.5677 5.17288,-1.558 10.21596,-4.9987 l 23.55617,-16.4001"
         id="path22"
         inkscape:connector-curvature="0" />
    </g>
    <g
       style="fill:#000000;fill-opacity:1;stroke-linejoin:miter"
       id="g28">
      <path
         d="m 21.02476,1207.6915 -60.52567,70.9153 q -53.8959,51.1098 -81.16215,71.6477 -19.95079,15.6161 -36.99836,17.9396 -24.92476,0.01 -25.67308,-25.8237 0.009,-11.8716 8.31308,-30.2609 5.67366,-12.1682 16.76887,-25.9252 11.0952,-13.7569 29.01868,-28.0078 3.48372,-3.5472 30.94453,-21.2119 40.312343,-24.7173 122.489247,-63.4247 -60.076447,40.4658 -110.319617,77.0703 -38.51568,29.187 -42.86819,33.7086 -12.1649,10.402 -20.68784,19.3738 -9.27786,10.226 -11.16563,13.719 -3.25893,4.9892 -4.77631,9.1814 -2.95282,8.409 0.0773,13.3383 10.1227,12.2601 38.84529,0.4712 9.35722,-3.9795 19.35732,-10.4899 4.56162,-1.915 31.98454,-24.6869 21.508674,-16.9887 96.37797,-97.5342"
         id="path26"
         inkscape:connector-curvature="0" />
    </g>
    <g
       style="fill:#000000;fill-opacity:1;stroke-linejoin:miter"
       id="g32">
      <path
         d="m 204.98515,1135.3542 -1.21217,11.1235 q -3.4743,33.7131 -8.40888,64.3392 -4.52119,24.6571 -5.8473,28.6966 -2.21616,9.001 -4.87852,17.0588 -2.67588,8.0291 -5.79796,15.115 -1.34301,4.0039 -10.16741,19.564 -9.01711,15.1527 -27.74664,37.1454 16.16292,-28.6098 23.84788,-44.4184 9.46082,-18.9877 15.53029,-37.7448 3.91263,-12.5293 6.48044,-24.5318 l 1.24889,-5.9259 q 1.43653,-6.7137 5.88533,-32.5131 l 2.70016,-13.6963 q 3.18788,-15.0027 8.36589,-34.2122"
         id="path30"
         inkscape:connector-curvature="0" />
    </g>
    <g
       style="fill:#000000;fill-opacity:1;stroke-linejoin:miter"
       id="g36">
      <path
         d="m 6.5034466,1070.5477 7.64e-5,4e-4 7.6e-5,2e-4 -1.524e-4,-6e-4"
         id="path34"
         inkscape:connector-curvature="0" />
    </g>
    <g
       style="fill:#000000;fill-opacity:1;stroke-linejoin:miter"
       id="g40">
      <path
         d="m 63.85352,1548.5465 9e-5,5e-4 9.3e-5,5e-4 -1.83e-4,-10e-4"
         id="path38"
         inkscape:connector-curvature="0" />
    </g>
    <g
       style="fill:#000000;fill-opacity:1;stroke-linejoin:miter"
       id="g44">
      <path
         d="m 39.84981,1325.0383 0.05446,-11.8556 q 0.49931,-48.299 -1.253096,-89.58 -1.4392,-30.4289 -5.812738,-52.2823 -4.399944,-21.6287 -12.091688,-39.8291 -1.043642,-3.0383 -8.57767,-18.8547 -22.412003,-43.7513 -24.34698,-49.2556 -11.802506,-27.806 -14.875896,-42.0713 -10.117733,-35.7311 -11.789822,-124.0935 9.597675,88.8458 21.015312,123.9869 5.506306,17.9289 12.366997,33.5135 0.1949347,2.1727 27.294025,56.3208 7.35659,16.0832 8.37967,19.2865 7.576026,18.9123 11.40753,41.3496 3.775937,22.6307 3.4997,53.0327 -0.2024,35.3254 -5.2698,100.3321"
         id="path42"
         inkscape:connector-curvature="0" />
    </g>
    <g
       style="fill:#000000;fill-opacity:1;stroke-linejoin:miter"
       id="g48">
      <path
         d="m -78.31684,867.6852 -9e-5,4e-5 q -253.89707,69.00216 9e-5,-4e-5"
         id="path46"
         inkscape:connector-curvature="0" />
    </g>
    <g
       style="fill:#000000;fill-opacity:1;stroke-linejoin:miter"
       id="g52">
      <path
         d="m -40.909576,979.14905 -1.853722,4.83925 q -5.879147,14.7204 -8.896679,27.6171 -0.89986,4.2314 -1.163807,8.0575 l -0.06524,3.6996 0.33223,3.4461 0.769405,3.1676 1.233093,2.8719 1.670288,2.5936 2.067734,2.34 q 2.266449,2.2134 5.16882,4.0216 7.096927,4.6219 24.767934,9.8205 -13.046801,-5.9536 -18.530191,-10.8389 -2.23462,-1.9172 -4.05668,-4.2032 l -1.69314,-2.4013 q -1.57711,-2.505 -2.58696,-5.5171 -0.992653,-3.0274 -1.418046,-6.5621 l -0.309364,-3.6383 q -0.18045,-3.7536 0.05167,-7.8759 0.477135,-10.2136 4.512654,-31.43795"
         id="path50"
         inkscape:connector-curvature="0" />
    </g>
    <g
       style="fill:#000000;fill-opacity:1;stroke-linejoin:miter"
       id="g56">
      <path
         d="m -42.489162,911.0231 -5.840725,7.77023 q -18.127753,23.61493 -30.805603,44.49311 -4.02411,6.85806 -6.83711,13.10791 l -2.43456,6.05981 -1.677625,5.67969 -0.844995,5.2616 0.03808,4.81815 0.87071,4.4 1.62764,4.02 q 2.0061,3.8298 5.22328,7.0516 7.740215,8.2064 30.997947,18.2953 -16.409857,-12.7947 -21.760601,-21.9452 -2.22834,-3.6124 -3.576356,-7.7024 l -1.072905,-4.2391 -0.522715,-4.5375 0.08251,-4.8658 0.724404,-5.214 1.32963,-5.54223 1.87983,-5.84067 q 2.15493,-5.98984 5.190175,-12.4571 7.368042,-16.0489 27.408993,-48.6134"
         id="path54"
         inkscape:connector-curvature="0" />
    </g>
    <g
       style="fill:#000000;fill-opacity:1;stroke-linejoin:miter"
       id="g60">
      <path
         d="m -119.64063,941.6498 -3e-5,4e-5 -3e-5,1.2e-4 6e-5,-1.6e-4"
         id="path58"
         inkscape:connector-curvature="0" />
    </g>
    <g
       style="fill:#000000;fill-opacity:1;stroke-linejoin:miter"
       id="g64">
      <path
         d="M -56.063774,897.42114 -63.4149,904.119 q -22.70147,20.4087 -39.57051,37.98134 -5.40701,5.75256 -9.51791,10.87482 l -3.70589,4.92534 q -3.34137,4.7481 -4.90061,8.6296 l -0.87417,2.74016 q -0.60715,2.61024 -0.27817,4.76534 0.72392,4.27806 4.40071,7.1202 5.98977,4.97036 25.02412,9.1069 -13.50039,-5.99225 -16.78638,-11.67994 -1.41292,-2.21991 -1.84069,-4.99126 l -0.11993,-2.9437 q 0.15715,-3.09867 1.66886,-6.9556 1.55276,-3.8799 4.46008,-8.51794 0.79178,-1.94856 11.15401,-15.2754 10.94716,-13.65429 38.237606,-42.47772"
         id="path62"
         inkscape:connector-curvature="0" />
    </g>
    <g
       style="fill:#000000;fill-opacity:1;stroke-linejoin:miter"
       id="g68">
      <path
         d="m -65.14035,880.9901 -10.44767,5.2503 q -32.23068,15.9126 -56.47253,30.36977 -7.78475,4.76513 -13.79419,9.20693 l -5.45466,4.3406 q -4.52056,3.5147 -8.33937,9.5246 -4.456,8.31886 3.71857,15.78425 8.57577,7.59695 31.33354,16.68065 -16.54113,-10.9229 -20.34646,-18.40623 -1.88635,-4.20557 -1.75781,-5.15377 -0.2673,-1.78526 -0.0428,-3.67466 0.41882,-3.7724 3.16606,-8.03748 2.50554,-3.8042 6.8715,-8.00201 1.27389,-1.90655 16.43816,-13.30025 15.96762,-11.56364 55.12769,-34.5827"
         id="path66"
         inkscape:connector-curvature="0" />
    </g>
    <g
       style="fill:#000000;fill-opacity:1;stroke-linejoin:miter"
       id="g72">
      <path
         d="m -80.44702,861.66205 -14.12003,3.95915 q -43.54252,11.9452 -76.44348,23.28127 -10.57287,3.7561 -18.78094,7.37689 l -7.46907,3.57844 q -6.25451,2.9681 -11.45549,8.0392 -6.83275,7.51523 4.2904,15.79013 6.61217,5.82937 39.90265,18.40857 -17.49368,-13.2721 -20.90288,-22.17157 -3.2946,-7.59143 4.67403,-15.64653 3.53686,-3.35286 9.29921,-6.79725 1.79373,-1.67745 21.28282,-10.49775 20.45006,-8.85986 69.72278,-25.32055"
         id="path70"
         inkscape:connector-curvature="0" />
    </g>
    <g
       style="fill:#000000;fill-opacity:1;stroke-linejoin:miter"
       id="g76">
      <path
         d="m -323.89172,973.2342 0.7337,-4.1187 q 1.46457,-11.9717 9.55765,-27.40377 12.05037,-19.36578 24.84287,-31.64773 26.65618,-28.85874 141.19004,-118.53775 -93.17214,82.40945 -129.3203,116.57465 -13.88922,12.87347 -25.40222,26.0457 -7.22824,9.1596 -5.58584,11.15925 0.2846,0.87865 0.76635,1.59825 49.90847,-46.7586 73.41732,-59.97734 7.26068,-4.59186 23.03686,-11.80762 l 75.08214,-30.79774 q -67.64519,28.3919 -98.79298,50.5915 -31.62505,20.77124 -89.52559,78.3213"
         id="path74"
         inkscape:connector-curvature="0" />
    </g>
    <g
       style="fill:#000000;fill-opacity:1;stroke-linejoin:miter"
       id="g80">
      <path
         d="m -205.25871,827.8125 -12.88108,-1.9991 q -39.83674,-6.42357 -68.93113,-9.01414 -9.3003,-0.72156 -16.21338,-0.59136 l -6.1671,0.39635 -4.6751,0.92865 -3.03393,1.5143 -0.51242,0.5075 q -4.24865,4.25414 10.97845,17.2307 13.74375,11.5764 49.5093,34.8232 -20.41137,-17.67134 -27.69368,-27.566 -6.89444,-10.1348 -1.77472,-13.69543 l 2.72497,-1.62877 3.78353,-1.2589 4.74592,-0.9228 q 5.22708,-0.7547 11.99396,-0.9715 16.53216,-0.67647 58.14641,2.2473"
         id="path78"
         inkscape:connector-curvature="0" />
    </g>
    <g
       style="fill:#000000;fill-opacity:1;stroke-linejoin:miter"
       id="g84">
      <path
         d="m -182.49875,798.95074 -18.79219,-4.10668 q -57.8701,-12.85796 -102.30009,-20.87299 -14.31227,-2.49237 -25.63782,-3.90847 l -10.39225,-1.0797 -8.52557,-0.40703 -6.47226,0.33283 -1.4255,0.2355 q -11.4188,2.37625 0.6448,14.22116 10.52179,10.49719 43.70033,32.9906 -15.21922,-14.53606 -17.3432,-22.06196 -0.9722,-3.71685 2.08175,-6.1631 3.10379,-1.8621 4.40375,-2.0201 1.89452,-0.5388 4.4144,-0.88015 l 6.1028,-0.49815 7.4596,-0.0698 8.69296,0.31934 q 9.30966,0.514 20.59278,1.6509 27.71438,2.6864 92.79571,12.31784"
         id="path82"
         inkscape:connector-curvature="0" />
    </g>
    <g
       style="fill:#000000;fill-opacity:1;stroke-linejoin:miter"
       id="g88">
      <path
         d="m -202.59947,773.6581 -22.30898,-8.74746 Q -293.56183,737.7436 -346.67792,718.89557 -363.8079,712.921 -377.48505,708.7951 l -12.59825,-3.54815 -10.4403,-2.39275 -8.06655,-1.12184 -1.68252,-0.0699 q -6.1651,-0.39254 -7.89643,3.2509 -1.28866,2.986 4.6664,11.25927 10.314,13.80438 47.51686,46.73853 -14.80196,-19.3104 -14.54376,-27.4916 0.19662,-3.81987 4.67462,-5.5388 6.10013,-1.5757 11.37463,-0.9456 6.85419,0.47056 16.77105,2.444 3.4619,0.2524 35.24967,8.61897 33.11033,9.01563 109.86016,33.65993"
         id="path86"
         inkscape:connector-curvature="0" />
    </g>
    <g
       style="fill:#000000;fill-opacity:1;stroke-linejoin:miter"
       id="g92">
      <path
         d="m -209.81886,752.8815 -23.65453,-11.9601 q -72.62527,-36.965 -130.29551,-64.1687 -43.86977,-19.93574 -48.3234,-21.103 -11.90025,-4.9057 -25.1219,-8.20317 -18.67408,-3.93237 -13.059,9.55307 2.60044,6.18534 8.76722,14.6985 9.52875,12.9516 22.06658,27.86727 -14.5228,-19.90601 -13.631,-27.50031 2.37878,-7.57246 22.26776,-2.1369 29.98344,5.98654 200.98378,82.95334"
         id="path90"
         inkscape:connector-curvature="0" />
    </g>
    <g
       style="fill:#000000;fill-opacity:1;stroke-linejoin:miter"
       id="g96">
      <path
         d="m -149.61707,769.37555 -22.9616,-12.16395 Q -324.1365,678.49036 -403.87085,620.2243 -476.5403,568.7006 -572.3868,458.25256 l 118.9175,190.85564 q -23.26315,-45.33415 -23.0477,-51.3717 -0.97207,-8.9604 0.96698,-8.3234 1.97162,-1.30464 5.98852,0.1878 0.59293,-0.9278 19.29032,11.39965 86.60838,63.74042 95.04228,67.90601 6.87538,5.17104 44.69255,26.82754 45.21827,26.1752 160.91928,73.64145"
         id="path94"
         inkscape:connector-curvature="0" />
    </g>
    <g
       style="fill:#000000;fill-opacity:1;stroke-linejoin:miter"
       id="g100">
      <path
         d="m -249.29803,709.3978 h -2.2e-4 l -2.1e-4,-3e-5 4.3e-4,3e-5"
         id="path98"
         inkscape:connector-curvature="0" />
    </g>
    <g
       style="fill:#000000;fill-opacity:1;stroke-linejoin:miter"
       id="g104">
      <path
         d="m 138.59004,963.09656 1.67119,14.8305 q 10.86277,99.78524 18.38327,131.88854 0.6497,3.6068 3.8983,12.9512 2.59886,6.4277 5.19775,8.5685 4.91608,3.6088 10.95903,-0.6629 -5.58018,-2.9333 -9.08122,-10.449 -3.55668,-8.3328 -4.38986,-11.7881 -1.5404,-5.0616 -3.20969,-12.0153 -6.51115,-25.3778 -23.42877,-133.32344"
         id="path102"
         inkscape:connector-curvature="0" />
    </g>
    <g
       style="fill:#000000;fill-opacity:1;stroke-linejoin:miter"
       id="g108">
      <path
         d="m 146.86615,949.2074 2.49739,13.47687 q 13.7585,75.04693 22.17494,109.09723 5.98244,23.1514 7.12957,25.7404 4.68008,14.5092 9.30349,22.6796 9.04529,15.8708 19.30316,12.2984 9.00959,-1.7444 28.58455,-26.3721 -16.51957,15.1799 -25.34089,13.7731 -10.78373,-1.8429 -17.85639,-15.444 -3.70878,-6.5828 -7.46722,-16.0985 -1.85495,-3.3247 -11.36435,-33.813 -9.53085,-31.7549 -26.96425,-105.338"
         id="path106"
         inkscape:connector-curvature="0" />
    </g>
    <g
       style="fill:#000000;fill-opacity:1;stroke-linejoin:miter"
       id="g112">
      <path
         d="m 163.91783,962.55457 5.5641,14.19207 q 16.88216,43.59606 32.05513,78.01386 12.16538,26.1105 14.10468,28.681 4.38901,7.8819 8.25574,12.9593 7.73474,10.9612 16.25993,8.6962 6.91011,-2.2026 16.37231,-21.7056 -8.09283,14.7821 -13.97589,14.8732 -6.09082,1.4321 -15.67032,-10.6684 -14.57727,-16.8112 -62.96568,-125.04163"
         id="path110"
         inkscape:connector-curvature="0" />
    </g>
    <g
       style="fill:#000000;fill-opacity:1;stroke-linejoin:miter"
       id="g116">
      <path
         d="m 181.24667,938.61115 6.46437,13.38425 q 26.50675,55.557 47.81914,94.9544 16.69748,29.4868 22.62092,34.5762 9.36083,10.4669 16.1364,6.1506 7.01548,-4.3479 12.12293,-25.6694 -8.24667,13.3624 -14.16949,11.9429 -6.22876,0.1938 -16.74396,-11.8379 -16.41126,-17.3831 -74.25031,-123.50105"
         id="path114"
         inkscape:connector-curvature="0" />
    </g>
    <g
       style="fill:#000000;fill-opacity:1;stroke-linejoin:miter"
       id="g120">
      <path
         d="m 195.84738,932.47687 8.89459,13.53467 q 27.1431,41.71556 50.15248,73.42586 18.01668,23.6229 20.42583,25.457 5.26402,6.1014 12.4195,11.3635 10.21582,6.987 15.6231,-2.5532 4.21622,-5.6507 6.97472,-35.971 -3.65178,18.0551 -10.06752,22.6295 -7.00134,3.8884 -17.07761,-4.0529 -17.53143,-11.057 -87.34509,-103.83343"
         id="path118"
         inkscape:connector-curvature="0" />
    </g>
    <g
       style="fill:#000000;fill-opacity:1;stroke-linejoin:miter"
       id="g124">
      <path
         d="m 187.5034,910.6118 11.06621,11.66676 q 33.79605,36.04204 62.21506,62.70588 9.27383,8.54066 17.35278,14.99713 l 7.70555,5.80523 q 6.56987,4.9196 14.69524,8.1715 13.51431,4.3565 18.43026,-8.2813 4.6167,-11.00146 5.3726,-39.62463 -4.40626,21.11249 -11.6772,28.79993 -4.11275,3.8237 -8.26345,4.24237 -7.04748,0.53308 -12.76941,-2.13697 -5.7222,-2.34387 -12.80838,-6.92706 -2.87662,-1.19739 -23.70709,-17.76974 -21.41949,-17.5392 -67.61217,-61.6491"
         id="path122"
         inkscape:connector-curvature="0" />
    </g>
    <g
       style="fill:#000000;fill-opacity:1;stroke-linejoin:miter"
       id="g128">
      <path
         d="m 172.91408,879.8031 11.01831,9.41016 q 49.69008,42.5205 72.60258,58.51834 29.37015,20.7719 44.17121,23.7621 5.05972,1.2311 9.31228,1.3286 l 4.0644,-0.1341 q 3.86932,-0.39175 7.01297,-1.6071 3.14361,-1.21526 5.61584,-3.0475 5.47455,-4.72147 6.35973,-6.85544 9.85246,-14.5534 -1.3093,-39.10876 -0.52293,25.72467 -5.9455,32.6227 -2.86763,4.4759 -8.23387,6.06425 -5.36633,1.58832 -14.05465,-0.66242 -6.64828,-1.79528 -15.25178,-5.85013 -3.34637,-0.92337 -29.3208,-16.22134 -26.81878,-16.27366 -86.04142,-58.21936"
         id="path126"
         inkscape:connector-curvature="0" />
    </g>
    <g
       style="fill:#000000;fill-opacity:1;stroke-linejoin:miter"
       id="g132">
      <path
         d="m 234.32787,915.58215 10.03306,1.73945 q 30.79181,5.628 55.34987,7.56713 l 7.60878,0.30481 6.91614,-0.1051 6.1369,-0.56614 5.27112,-1.0786 4.31869,-1.64206 1.23123,-0.69147 q 7.89414,-4.62127 6.49558,-17.33207 -0.33914,-8.53365 -11.83371,-34.77956 5.07847,18.27636 3.88307,28.69232 -1.83967,10.92041 -10.333,14.77544 l -4.21178,1.7367 -4.96259,1.3513 -5.64511,1.0011 q -5.98639,0.82595 -13.06482,1.09145 -17.4231,0.80385 -57.19343,-2.0647"
         id="path130"
         inkscape:connector-curvature="0" />
    </g>
    <g
       style="fill:#000000;fill-opacity:1;stroke-linejoin:miter"
       id="g136">
      <path
         d="m 209.75893,891.4814 11.6956,-0.4201 q 52.84381,-1.81606 72.89801,-6.0668 8.33139,-1.59234 14.74039,-3.85455 l 5.82159,-2.46692 4.64678,-2.87628 1.88578,-1.63285 q 8.03284,-8.65084 3.67288,-21.61995 -0.86999,-3.7381 -5.47848,-13.02082 -2.50812,-5.28493 -13.3114,-22.28213 9.20742,19.7617 9.02075,29.6187 0.11177,5.9432 -2.77583,11.19505 -4.50594,6.35809 -6.59868,7.35505 -4.05155,3.08697 -9.93382,5.75194 l -6.2567,2.57862 q -6.67285,2.48274 -14.67707,4.65854 -19.67778,5.5163 -65.3498,13.0825"
         id="path134"
         inkscape:connector-curvature="0" />
    </g>
    <g
       style="fill:#000000;fill-opacity:1;stroke-linejoin:miter"
       id="g140">
      <path
         d="m 199.69684,870.66693 11.01166,-4.22043 q 33.86334,-12.6961 60.27148,-25.0804 8.52664,-4.1166 15.39652,-8.1639 l 6.3522,-4.0257 q 5.8862,-4.0062 9.49444,-7.91716 8.83564,-10.34364 4.05048,-20.11798 -4.203,-9.71956 -20.80707,-24.30346 5.36377,19.0988 3.91248,29.3981 -0.47696,4.127 -1.98975,8.18124 l -1.83652,4.03156 q -2.12786,4.011 -5.68002,7.92205 -3.5953,3.90808 -8.61496,7.71605 -1.81384,1.9529 -17.61616,11.2445 -16.41742,9.24843 -53.94478,25.33553"
         id="path138"
         inkscape:connector-curvature="0" />
    </g>
    <g
       style="fill:#000000;fill-opacity:1;stroke-linejoin:miter"
       id="g144">
      <path
         d="m 182.20697,851.39056 9.68579,-5.33076 q 29.78098,-16.15733 53.04944,-30.8281 17.56634,-11.8094 19.1982,-13.74183 5.20848,-4.30877 8.427,-8.16333 l 2.13148,-2.87744 q 1.81272,-2.8047 2.5134,-5.3556 1.31998,-5.0831 -0.8313,-9.37396 -4.11551,-7.83674 -17.65288,-16.67344 7.3805,12.6152 6.99123,20.59477 -0.0507,3.16907 -1.15103,6.56518 l -1.42825,3.46698 q -1.72345,3.53087 -4.88995,7.37387 -3.21024,3.8524 -7.8636,8.01694 -1.62152,1.92976 -16.55099,13.05396 -15.55258,11.2589 -51.62854,33.27276"
         id="path142"
         inkscape:connector-curvature="0" />
    </g>
    <g
       style="fill:#000000;fill-opacity:1;stroke-linejoin:miter"
       id="g148">
      <path
         d="m 137.63988,893.9773 1.48065,-2.1441 q 11.98996,-17.1902 13.95354,-24.72553 1.17938,-3.80451 1.68498,-7.63562 l 1.55276,-17.37545 q 0.84163,-6.5227 1.34696,-8.06834 2.84434,-10.198 6.5486,-15.27006 6.13006,-9.7948 20.36427,-20.6156 16.43112,-12.58016 52.03761,-33.4901 -51.51597,36.77414 -62.4651,51.64566 -6.73373,7.79214 -10.21443,19.42274 -0.49704,1.3114 -1.39397,7.5931 l -1.49199,19.4524 q -0.61615,4.6306 -2.44468,8.8507 -3.29181,8.5654 -20.9592,22.3602"
         id="path146"
         inkscape:connector-curvature="0" />
    </g>
    <g
       style="fill:#000000;fill-opacity:1;stroke-linejoin:miter"
       id="g152">
      <path
         d="m 110.11342,859.7108 22.34118,26.7134 Q 97.05748,836.3198 58.039017,776.44183 45.42659,758.7921 42.337482,755.3835 31.16484,741.36835 18.050552,729.8057 1.0118264,715.5588 -13.704462,709.6281 q -12.723085,-6.2892 -34.112698,-8.0508 -20.0855,-0.2432 -33.191736,7.2352 -27.239544,15.31244 -55.738544,63.32043 18.08751,-23.39023 31.74978,-36.76178 12.51794,-11.87219 22.695414,-16.17325 16.968276,-6.9996 30.56356,-6.31313 17.625092,0.77173 28.717176,5.42493 21.9435883,7.26665 48.488646,34.66796 16.427536,14.98324 84.646284,106.73314"
         id="path150"
         inkscape:connector-curvature="0" />
    </g>
    <g
       style="fill:#000000;fill-opacity:1;stroke-linejoin:miter"
       id="g156">
      <path
         d="m -126.21454,848.28766 5.58423,0.70428 q 16.95734,1.93836 32.07297,5.44593 12.08052,3.36248 13.96458,4.48828 4.31808,1.78305 8.07341,4.04559 3.7383,2.27706 6.913828,5.03356 1.862747,1.144 8.516292,9.1305 6.41051,8.19355 14.79817,25.62696 -2.014963,-20.81659 -6.201845,-30.19062 -1.603061,-3.80084 -3.923185,-7.08954 l -2.544207,-3.12866 q -2.745895,-2.98468 -6.47776,-5.26514 -3.761749,-2.2591 -8.509499,-3.8141 l -4.949404,-1.41087 q -5.173505,-1.25093 -11.06405,-1.98963 -14.54718,-1.97497 -46.25353,-1.58654"
         id="path154"
         inkscape:connector-curvature="0" />
    </g>
    <g
       style="fill:#000000;fill-opacity:1;stroke-linejoin:miter"
       id="g160">
      <path
         d="m -52.793602,776.638 0.575058,2.034 q 1.223404,6.3282 -1.848381,11.46277 -3.102845,5.14227 -9.26712,6.54853 -5.989345,1.04015 -11.005895,-2.3829 -5.02507,-3.456 -6.604396,-9.9819 -1.223414,-6.32814 1.848376,-11.4627 3.102834,-5.1423 9.26712,-6.54855 5.989324,-1.04025 11.005888,2.38281 1.611969,1.10984 2.935196,2.62224 l 1.228446,1.6013 q 1.144974,1.696 1.865708,3.7244"
         id="path158"
         inkscape:connector-curvature="0" />
    </g>
  </g>
  <text
     xml:space="preserve"
     style="font-style:normal;font-variant:normal;font-weight:bold;font-stretch:normal;font-size:40px;line-height:0.89999998;font-family:sans-serif;-inkscape-font-specification:'sans-serif Bold';letter-spacing:0px;word-spacing:0px;display:inline;fill:#000000;fill-opacity:1;stroke:none"
     x="15.664327"
     y="443.72412"
     id="text3876"><tspan
       sodipodi:role="line"
       id="tspan3874"
       x="15.664327"
       y="443.72412"
       style="font-size:96px;line-height:0.89999998">IPTV <tspan
   style="font-style:italic;font-variant:normal;font-weight:normal;font-stretch:normal;font-size:96px;line-height:0.89999998;font-family:sans-serif;-inkscape-font-specification:'sans-serif Italic'"
   id="tspan3878" /></tspan><tspan
       sodipodi:role="line"
       x="15.664327"
       y="530.12415"
       style="font-size:96px;line-height:0.89999998"
       id="tspan3946"><tspan
         style="font-style:italic;font-variant:normal;font-weight:normal;font-stretch:normal;font-size:96px;line-height:0.89999998;font-family:sans-serif;-inkscape-font-specification:'sans-serif Italic'"
         id="tspan3948">Feather</tspan></tspan></text>
  <flowRoot
     xml:space="preserve"
     id="flowRoot3880"
     style="font-style:normal;font-weight:normal;font-size:40px;line-height:1.25;font-family:sans-serif;letter-spacing:0px;word-spacing:0px;fill:#000000;fill-opacity:1;stroke:none"
     transform="translate(-54.825084,-471.19959)"><flowRegion
       id="flowRegion3882"><rect
         id="rect3884"
         width="38.841103"
         height="79.120766"
         x="191.32838"
         y="256.06357" /></flowRegion><flowPara
       id="flowPara3886" /></flowRoot>  <flowRoot
     xml:space="preserve"
     id="flowRoot3934"
     style="font-style:normal;font-weight:normal;font-size:40px;line-height:1.25;font-family:sans-serif;letter-spacing:0px;word-spacing:0px;fill:#000000;fill-opacity:1;stroke:none"
     transform="translate(-54.825084,-471.19959)"><flowRegion
       id="flowRegion3936"><rect
         id="rect3938"
         width="7.1927967"
         height="69.05085"
         x="290.58899"
         y="254.625" /></flowRegion><flowPara
       id="flowPara3940" /></flowRoot></svg>
