<?xml version="1.0" encoding="utf-8"?>
<svg xmlns="http://www.w3.org/2000/svg" xmlns:xlink="http://www.w3.org/1999/xlink" version= "1.1" width="720px" height="1358px" viewBox="0 0 720 1358">
<g id="layer1">
<g style="fill:rgb(0,0,0); fill-opacity:1.0; stroke-linejoin: miter">
<path d="M139.58556,1226.1624L134.7038,1246.2928Q112.63272,1337.096,104.865944,1378.1523Q94.75862,1429.1152,94.569984,1459.1549Q94.61623,1478.822,97.6893,1489.7229Q100.762375,1500.6238,104.935486,1504.3398Q116.48203,1513.9927,123.05665,1483.3107Q125.432304,1471.8699,126.54578,1455.5396Q129.7861,1394.6232,131.48297,1370.5647Q133.73883,1335.6918,142.52135,1222.1012Q139.64687,1377.0417,137.07458,1422.5135Q135.52266,1455.1626,133.24084,1477.253Q130.11853,1502.6677,129.1321,1504.8667Q127.533424,1512.2766,125.553085,1517.5017Q124.852875,1521.3391,118.581894,1528.7307Q108.26609,1535.9282,97.66917,1526.1293Q90.53435,1519.7185,86.095406,1504.3334L84.28614,1495.9397L83.10392,1486.2559L82.645424,1475.2258L83.007324,1462.7936L84.30765,1448.5043L86.49872,1432.7983L89.49956,1415.8048Q92.90528,1398.1674,97.60664,1378.4696Q109.036125,1329.7401,139.58556,1226.1624"/>
</g>
<g style="fill:rgb(0,0,0); fill-opacity:1.0; stroke-linejoin: miter">
<path d="M83.92878,1503.5404L84.59273,1505.6014Q88.806946,1519.3713,92.83081,1524.8301Q96.32875,1529.9727,105.49821,1532.2527Q87.7335,1564.93,70.3706,1547.0546Q67.74481,1544.1053,65.62553,1539.3481L63.714302,1534.0604Q61.97042,1528.2816,61.221645,1520.2242L60.80307,1511.5186L61.044914,1501.5167L62.0286,1490.1401L63.81056,1477.3435Q66.00415,1463.8203,69.56986,1447.8751Q70.70096,1441.053,82.668236,1395.8008Q98.54515,1338.8217,118.126785,1275.303Q73.273735,1455.0785,70.178764,1482.3726Q69.04641,1489.9584,68.50242,1496.5748L68.124565,1502.9542Q67.903336,1509.0939,68.38478,1514.2961Q68.91042,1519.6312,70.0381,1523.5182Q70.33976,1526.0586,74.50733,1533.8029Q85.5585,1547.877,90.21582,1540.4003Q90.86393,1538.776,90.90222,1536.2883Q91.21103,1535.4545,89.94987,1527.3147Q87.7626,1516.5929,83.92878,1503.5404"/>
</g>
<g style="fill:rgb(0,0,0); fill-opacity:1.0; stroke-linejoin: miter">
<path d="M58.190594,1493.6305L58.033722,1496.8721Q56.882427,1518.4143,57.522423,1528.1699Q57.98896,1537.2091,61.74549,1545.1526Q46.94949,1547.0684,40.177807,1539.7421Q29.952095,1529.9604,21.877111,1501.5408Q16.276442,1480.3792,17.331858,1455.3325Q17.904,1428.123,35.122036,1397.025Q48.90628,1370.5314,105.46889,1296.9231Q66.67767,1348.7225,51.0201,1377.0541Q44.619297,1388.3971,39.596107,1399.636L35.00342,1410.8423Q30.798174,1422.0193,28.487144,1433.053Q24.213043,1455.3994,26.461174,1475.4211L27.720476,1485.0211Q29.278454,1494.3696,31.595297,1502.2872Q32.60631,1507.459,39.163643,1521.758Q46.129986,1535.1586,50.74295,1530.0586Q54.68613,1527.557,58.190594,1493.6305"/>
</g>
<g style="fill:rgb(0,0,0); fill-opacity:1.0; stroke-linejoin: miter">
<path d="M14.346907,1466.4265L14.377745,1467.9833Q14.17367,1484.9436,18.224888,1500.1333Q8.077355,1501.6982,-1.6894066,1502.0504Q-8.177081,1502.2104,-14.213476,1500.9331Q-20.838865,1499.5109,-26.674809,1495.5742Q-32.12561,1491.8545,-37.08591,1486.5725Q-44.488064,1478.5275,-51.476376,1469.1643Q-41.78411,1462.117,-35.507072,1455.2327Q-29.485355,1448.948,-14.580103,1429.6572Q-25.361221,1454.3928,-27.224468,1468.1929Q-27.938862,1474.2891,-26.916168,1479.2224Q-26.418423,1481.682,-25.573723,1483.8092L-24.657326,1485.8466Q-23.66171,1487.7972,-22.409353,1489.3743Q-13.670258,1499.4242,-1.6042721,1492.6022Q2.9178183,1489.8461,6.285619,1484.5519Q10.138554,1478.5269,14.346907,1466.4265"/>
</g>
<g style="fill:rgb(0,0,0); fill-opacity:1.0; stroke-linejoin: miter">
<path d="M38.572144,1246.9485L26.450367,1262.8896Q-45.2751,1357.7452,-58.460556,1380.9235Q-83.593346,1421.396,-86.90567,1438.7313Q-91.69577,1458.7205,-84.43551,1464.0513Q-76.34752,1469.3826,-60.76956,1457.1971Q-52.54872,1452.0581,-25.81765,1420.8859Q-1.9502442,1391.7401,24.26898,1356.6187Q-1.5401537,1402.4471,-22.88289,1430.9606Q-61.640717,1481.2596,-84.61102,1480.894Q-91.73018,1479.8716,-94.025406,1477.3212Q-97.33906,1474.6621,-99.56628,1470.1539L-101.43784,1465.2124Q-102.99577,1459.823,-102.96296,1452.7565L-102.44841,1445.2993Q-101.494156,1437.4371,-98.44487,1428.0696Q-89.00758,1399.6034,-58.638626,1360.206Q-41.375843,1335.5038,38.572144,1246.9485"/>
</g>
<g style="fill:rgb(0,0,0); fill-opacity:1.0; stroke-linejoin: miter">
<path d="M-85.6344,1394.7594L-86.615776,1396.5134Q-93.09737,1407.9441,-96.464455,1415.5339Q-99.537186,1422.3035,-103.48178,1435.2067Q-119.8103,1434.4537,-125.84964,1433.2869Q-134.20964,1432.0017,-140.2211,1428.6482Q-143.18489,1426.9344,-145.3099,1424.482L-147.18329,1421.808L-148.5674,1418.7029Q-149.69986,1415.3762,-149.99358,1411.3108Q-150.4971,1403.1062,-148.65207,1392.833Q-147.49895,1385.3313,-142.57162,1365.8573Q-130.25464,1361.0961,-123.928406,1356.8765Q-117.632126,1352.985,-104.70414,1341.524Q-129.03415,1371.3158,-133.22362,1382.1584Q-136.70233,1389.6177,-137.07425,1396.0413Q-137.40417,1402.4711,-135.38368,1407.2533Q-134.40234,1409.6246,-133.00671,1411.4646L-131.53639,1413.152Q-129.97696,1414.6965,-128.17657,1415.5905Q-124.174835,1417.511,-119.406525,1416.1582Q-114.23365,1414.6002,-109.190575,1411.1595L-85.6344,1394.7594"/>
</g>
<g style="fill:rgb(0,0,0); fill-opacity:1.0; stroke-linejoin: miter">
<path d="M21.02476,1207.6915L-39.50091,1278.6068Q-93.39681,1329.7166,-120.663055,1350.2545Q-140.61385,1365.8706,-157.66142,1368.1941Q-182.58618,1368.201,-183.3345,1342.3704Q-183.32516,1330.4988,-175.02142,1312.1095Q-169.34776,1299.9413,-158.25255,1286.1843Q-147.15735,1272.4274,-129.23387,1258.1765Q-125.75015,1254.6293,-98.28934,1236.9646Q-57.976997,1212.2473,24.199907,1173.5399Q-35.87654,1214.0057,-86.11971,1250.6102Q-124.63539,1279.7972,-128.9879,1284.3188Q-141.1528,1294.7208,-149.67574,1303.6926Q-158.9536,1313.9186,-160.84137,1317.4116Q-164.1003,1322.4008,-165.61768,1326.593Q-168.5705,1335.002,-165.54036,1339.9313Q-155.41766,1352.1914,-126.69507,1340.4025Q-117.337845,1336.423,-107.33775,1329.9126Q-102.77613,1327.9976,-75.35321,1305.2257Q-53.844536,1288.237,21.02476,1207.6915"/>
</g>
<g style="fill:rgb(0,0,0); fill-opacity:1.0; stroke-linejoin: miter">
<path d="M204.98515,1135.3542L203.77298,1146.4777Q200.29868,1180.1908,195.3641,1210.8169Q190.84291,1235.474,189.5168,1239.5135Q187.30064,1248.5145,184.63828,1256.5723Q181.9624,1264.6014,178.84032,1271.6873Q177.49731,1275.6912,168.67291,1291.2513Q159.6558,1306.404,140.92627,1328.3967Q157.08919,1299.7869,164.77415,1283.9783Q174.23497,1264.9906,180.30444,1246.2335Q184.21707,1233.7042,186.78488,1221.7017L188.03377,1215.7758Q189.4703,1209.0621,193.9191,1183.2627L196.61926,1169.5664Q199.80714,1154.5637,204.98515,1135.3542"/>
</g>
<g style="fill:rgb(0,0,0); fill-opacity:1.0; stroke-linejoin: miter">
<path d="M6.5034466,1070.5477L6.503523,1070.5481L6.503599,1070.5483L6.5034466,1070.5477"/>
</g>
<g style="fill:rgb(0,0,0); fill-opacity:1.0; stroke-linejoin: miter">
<path d="M63.85352,1548.5465L63.85361,1548.547L63.853703,1548.5475L63.85352,1548.5465"/>
</g>
<g style="fill:rgb(0,0,0); fill-opacity:1.0; stroke-linejoin: miter">
<path d="M39.84981,1325.0383L39.904266,1313.1827Q40.403576,1264.8837,38.65117,1223.6027Q37.21197,1193.1738,32.838432,1171.3204Q28.438488,1149.6917,20.746744,1131.4913Q19.703102,1128.453,12.169074,1112.6366Q-10.242929,1068.8853,-12.177906,1063.381Q-23.980412,1035.575,-27.053802,1021.30975Q-37.171535,985.5786,-38.843624,897.2162Q-29.245949,986.062,-17.828312,1021.2031Q-12.322006,1039.132,-5.461315,1054.7166Q-5.2663803,1056.8893,21.83271,1111.0374Q29.1893,1127.1206,30.21238,1130.3239Q37.788406,1149.2362,41.61991,1171.6735Q45.395847,1194.3042,45.11961,1224.7062Q44.91721,1260.0316,39.84981,1325.0383"/>
</g>
<g style="fill:rgb(0,0,0); fill-opacity:1.0; stroke-linejoin: miter">
<path d="M-78.31684,867.6852L-78.31693,867.68524Q-332.214,936.6874,-78.31684,867.6852"/>
</g>
<g style="fill:rgb(0,0,0); fill-opacity:1.0; stroke-linejoin: miter">
<path d="M-40.909576,979.14905L-42.763298,983.9883Q-48.642445,998.7087,-51.659977,1011.6054Q-52.559837,1015.8368,-52.823784,1019.6629L-52.889023,1023.3625L-52.556793,1026.8086L-51.787388,1029.9762L-50.554295,1032.8481L-48.884007,1035.4417L-46.816273,1037.7817Q-44.549824,1039.9951,-41.647453,1041.8033Q-34.550526,1046.4252,-16.879519,1051.6238Q-29.92632,1045.6702,-35.40971,1040.7849Q-37.64433,1038.8677,-39.46639,1036.5817L-41.15953,1034.1804Q-42.73664,1031.6754,-43.74649,1028.6633Q-44.739143,1025.6359,-45.164536,1022.1012L-45.4739,1018.4629Q-45.65435,1014.70935,-45.42223,1010.58704Q-44.945095,1000.3734,-40.909576,979.14905"/>
</g>
<g style="fill:rgb(0,0,0); fill-opacity:1.0; stroke-linejoin: miter">
<path d="M-42.489162,911.0231L-48.329887,918.79333Q-66.45764,942.40826,-79.13549,963.28644Q-83.1596,970.1445,-85.9726,976.39435L-88.40716,982.45416L-90.084785,988.13385L-90.92978,993.39545L-90.8917,998.2136L-90.02099,1002.61365L-88.39335,1006.6336Q-86.38725,1010.46344,-83.17007,1013.68524Q-75.429855,1021.8916,-52.172123,1031.9805Q-68.58198,1019.18585,-73.932724,1010.03534Q-76.161064,1006.4229,-77.50908,1002.33295L-78.581985,998.0938L-79.1047,993.5563L-79.022194,988.6905L-78.29779,983.4765L-76.96816,977.93427L-75.08833,972.0936Q-72.9334,966.10376,-69.898155,959.6365Q-62.530113,943.5876,-42.489162,911.0231"/>
</g>
<g style="fill:rgb(0,0,0); fill-opacity:1.0; stroke-linejoin: miter">
<path d="M-119.640625,941.6498L-119.640656,941.64984L-119.640686,941.64996L-119.640625,941.6498"/>
</g>
<g style="fill:rgb(0,0,0); fill-opacity:1.0; stroke-linejoin: miter">
<path d="M-56.063774,897.42114L-63.4149,904.119Q-86.11637,924.5277,-102.98541,942.10034Q-108.39242,947.8529,-112.50332,952.97516L-116.20921,957.9005Q-119.55058,962.6486,-121.10982,966.5301L-121.98399,969.27026Q-122.59114,971.8805,-122.26216,974.0356Q-121.53824,978.31366,-117.86145,981.1558Q-111.87168,986.12616,-92.83733,990.2627Q-106.33772,984.27045,-109.62371,978.58276Q-111.03663,976.36285,-111.4644,973.5915L-111.58433,970.6478Q-111.427185,967.54913,-109.915474,963.6922Q-108.36271,959.8123,-105.45539,955.17426Q-104.66361,953.2257,-94.30138,939.89886Q-83.35422,926.24457,-56.063774,897.42114"/>
</g>
<g style="fill:rgb(0,0,0); fill-opacity:1.0; stroke-linejoin: miter">
<path d="M-65.14035,880.9901L-75.58802,886.2404Q-107.8187,902.153,-132.06055,916.61017Q-139.8453,921.3753,-145.85474,925.8171L-151.3094,930.1577Q-155.82996,933.6724,-159.64877,939.6823Q-164.10477,948.00116,-155.9302,955.46655Q-147.35443,963.0635,-124.596664,972.1472Q-141.13779,961.2243,-144.94312,953.74097Q-146.82947,949.5354,-146.70093,948.5872Q-146.96823,946.80194,-146.74376,944.91254Q-146.32494,941.14014,-143.5777,936.87506Q-141.07216,933.07086,-136.7062,928.87305Q-135.43231,926.9665,-120.268036,915.5728Q-104.30042,904.00916,-65.14035,880.9901"/>
</g>
<g style="fill:rgb(0,0,0); fill-opacity:1.0; stroke-linejoin: miter">
<path d="M-80.44702,861.66205L-94.56705,865.6212Q-138.10957,877.5664,-171.01053,888.90247Q-181.5834,892.65857,-189.79147,896.27936L-197.26054,899.8578Q-203.51505,902.8259,-208.71603,907.897Q-215.54878,915.41223,-204.42563,923.68713Q-197.81346,929.5165,-164.52298,942.0957Q-182.01666,928.8236,-185.42586,919.92413Q-188.72046,912.3327,-180.75183,904.2776Q-177.21497,900.92474,-171.45262,897.48035Q-169.65889,895.8029,-150.1698,886.9826Q-129.71974,878.12274,-80.44702,861.66205"/>
</g>
<g style="fill:rgb(0,0,0); fill-opacity:1.0; stroke-linejoin: miter">
<path d="M-323.89172,973.2342L-323.15802,969.1155Q-321.69345,957.1438,-313.60037,941.71173Q-301.55,922.34595,-288.7575,910.064Q-262.10132,881.20526,-147.56746,791.52625Q-240.7396,873.9357,-276.88776,908.1009Q-290.77698,920.97437,-302.28998,934.1466Q-309.51822,943.3062,-307.87582,945.30585Q-307.59122,946.1845,-307.10947,946.9041Q-257.201,900.1455,-233.69215,886.92676Q-226.43147,882.3349,-210.65529,875.11914L-135.57315,844.3214Q-203.21834,872.7133,-234.36613,894.9129Q-265.99118,915.68414,-323.89172,973.2342"/>
</g>
<g style="fill:rgb(0,0,0); fill-opacity:1.0; stroke-linejoin: miter">
<path d="M-205.25871,827.8125L-218.13979,825.8134Q-257.97653,819.38983,-287.07092,816.79926Q-296.37122,816.0777,-303.2843,816.2079L-309.4514,816.60425L-314.1265,817.5329L-317.16043,819.0472L-317.67285,819.5547Q-321.9215,823.80884,-306.6944,836.7854Q-292.95065,848.3618,-257.1851,871.6086Q-277.59647,853.93726,-284.87878,844.0426Q-291.77322,833.9078,-286.6535,830.34717L-283.92853,828.7184L-280.145,827.4595L-275.39908,826.5367Q-270.172,825.782,-263.40512,825.5652Q-246.87296,824.88873,-205.25871,827.8125"/>
</g>
<g style="fill:rgb(0,0,0); fill-opacity:1.0; stroke-linejoin: miter">
<path d="M-182.49875,798.95074L-201.29094,794.84406Q-259.16104,781.9861,-303.59103,773.97107Q-317.9033,771.4787,-329.22885,770.0626L-339.6211,768.9829L-348.14667,768.57587L-354.61893,768.9087L-356.04443,769.1442Q-367.46323,771.52045,-355.39963,783.36536Q-344.87784,793.86255,-311.6993,816.35596Q-326.91852,801.8199,-329.0425,794.294Q-330.0147,790.57715,-326.96075,788.1309Q-323.85696,786.2688,-322.557,786.1108Q-320.66248,785.572,-318.1426,785.23065L-312.0398,784.7325L-304.5802,784.66266L-295.88724,784.982Q-286.57758,785.496,-275.29446,786.6329Q-247.58008,789.3193,-182.49875,798.95074"/>
</g>
<g style="fill:rgb(0,0,0); fill-opacity:1.0; stroke-linejoin: miter">
<path d="M-202.59947,773.6581L-224.90845,764.91064Q-293.56183,737.7436,-346.67792,718.89557Q-363.8079,712.921,-377.48505,708.7951L-390.0833,705.24695L-400.5236,702.8542L-408.59015,701.73236L-410.27267,701.6625Q-416.43777,701.26996,-418.1691,704.9134Q-419.45776,707.8994,-413.5027,716.17267Q-403.1887,729.97705,-365.98584,762.9112Q-380.7878,743.6008,-380.5296,735.4196Q-380.33298,731.59973,-375.85498,729.8808Q-369.75485,728.3051,-364.48035,728.9352Q-357.62616,729.40576,-347.7093,731.3792Q-344.2474,731.6316,-312.45963,739.99817Q-279.3493,749.0138,-202.59947,773.6581"/>
</g>
<g style="fill:rgb(0,0,0); fill-opacity:1.0; stroke-linejoin: miter">
<path d="M-209.81886,752.8815L-233.47339,740.9214Q-306.09866,703.9564,-363.7689,676.7527Q-407.63867,656.81696,-412.0923,655.6497Q-423.99255,650.744,-437.2142,647.44653Q-455.88828,643.51416,-450.2732,656.9996Q-447.67276,663.18494,-441.50598,671.6981Q-431.97723,684.6497,-419.4394,699.56537Q-433.9622,679.65936,-433.0704,672.06506Q-430.69162,664.4926,-410.80264,669.92816Q-380.8192,675.9147,-209.81886,752.8815"/>
</g>
<g style="fill:rgb(0,0,0); fill-opacity:1.0; stroke-linejoin: miter">
<path d="M-149.61707,769.37555L-172.57867,757.2116Q-324.1365,678.49036,-403.87085,620.2243Q-476.5403,568.7006,-572.3868,458.25256L-453.4693,649.1082Q-476.73245,603.77405,-476.517,597.7365Q-477.48907,588.7761,-475.55002,589.4131Q-473.5784,588.10846,-469.5615,589.6009Q-468.96857,588.6731,-450.27118,601.00055Q-363.6628,664.74097,-355.2289,668.90656Q-348.35352,674.0776,-310.53635,695.7341Q-265.31808,721.9093,-149.61707,769.37555"/>
</g>
<g style="fill:rgb(0,0,0); fill-opacity:1.0; stroke-linejoin: miter">
<path d="M-249.29803,709.3978L-249.29825,709.3978L-249.29846,709.39777L-249.29803,709.3978"/>
</g>
<g style="fill:rgb(0,0,0); fill-opacity:1.0; stroke-linejoin: miter">
<path d="M138.59004,963.09656L140.26123,977.92706Q151.124,1077.7123,158.6445,1109.8156Q159.2942,1113.4224,162.5428,1122.7668Q165.14166,1129.1945,167.74055,1131.3353Q172.65663,1134.9441,178.69958,1130.6724Q173.1194,1127.7391,169.61836,1120.2234Q166.06168,1111.8906,165.2285,1108.4353Q163.6881,1103.3737,162.01881,1096.42Q155.50766,1071.0422,138.59004,963.09656"/>
</g>
<g style="fill:rgb(0,0,0); fill-opacity:1.0; stroke-linejoin: miter">
<path d="M146.86615,949.2074L149.36354,962.68427Q163.12204,1037.7312,171.53848,1071.7815Q177.52092,1094.9329,178.66805,1097.5219Q183.34813,1112.0311,187.97154,1120.2015Q197.01683,1136.0723,207.2747,1132.4999Q216.28429,1130.7555,235.85925,1106.1278Q219.33968,1121.3077,210.51836,1119.9009Q199.73463,1118.058,192.66197,1104.4569Q188.95319,1097.8741,185.19475,1088.3584Q183.3398,1085.0337,173.8304,1054.5454Q164.29955,1022.79047,146.86615,949.2074"/>
</g>
<g style="fill:rgb(0,0,0); fill-opacity:1.0; stroke-linejoin: miter">
<path d="M163.91783,962.55457L169.48193,976.74664Q186.36409,1020.3427,201.53706,1054.7605Q213.70244,1080.871,215.64174,1083.4415Q220.03075,1091.3234,223.89748,1096.4008Q231.63222,1107.362,240.15741,1105.097Q247.06752,1102.8944,256.52972,1083.3914Q248.43689,1098.1735,242.55383,1098.2646Q236.46301,1099.6967,226.88351,1087.5962Q212.30624,1070.785,163.91783,962.55457"/>
</g>
<g style="fill:rgb(0,0,0); fill-opacity:1.0; stroke-linejoin: miter">
<path d="M181.24667,938.61115L187.71104,951.9954Q214.21779,1007.55237,235.53018,1046.9498Q252.22766,1076.4366,258.1511,1081.526Q267.51193,1091.9929,274.2875,1087.6766Q281.30298,1083.3287,286.41043,1062.0072Q278.16376,1075.3696,272.24094,1073.9501Q266.01218,1074.1439,255.49698,1062.1122Q239.08572,1044.7291,181.24667,938.61115"/>
</g>
<g style="fill:rgb(0,0,0); fill-opacity:1.0; stroke-linejoin: miter">
<path d="M195.84738,932.47687L204.74197,946.01154Q231.88507,987.7271,254.89445,1019.4374Q272.91113,1043.0603,275.32028,1044.8944Q280.5843,1050.9958,287.73978,1056.2579Q297.9556,1063.2449,303.36288,1053.7047Q307.5791,1048.054,310.3376,1017.7337Q306.68582,1035.7888,300.27008,1040.3632Q293.26874,1044.2516,283.19247,1036.3103Q265.66104,1025.2533,195.84738,932.47687"/>
</g>
<g style="fill:rgb(0,0,0); fill-opacity:1.0; stroke-linejoin: miter">
<path d="M187.5034,910.6118L198.56961,922.27856Q232.36566,958.3206,260.78467,984.98444Q270.0585,993.5251,278.13745,999.98157L285.843,1005.7868Q292.41287,1010.70636,300.53824,1013.9583Q314.05255,1018.31476,318.9685,1005.677Q323.5852,994.67554,324.3411,966.05237Q319.93484,987.16486,312.6639,994.8523Q308.55115,998.676,304.40045,999.09467Q297.35297,999.62775,291.63104,996.9577Q285.90884,994.61383,278.82266,990.03064Q275.94604,988.83325,255.11557,972.2609Q233.69608,954.7217,187.5034,910.6118"/>
</g>
<g style="fill:rgb(0,0,0); fill-opacity:1.0; stroke-linejoin: miter">
<path d="M172.91408,879.8031L183.93239,889.21326Q233.62247,931.73376,256.53497,947.7316Q285.90512,968.5035,300.70618,971.4937Q305.7659,972.7248,310.01846,972.8223L314.08286,972.6882Q317.95218,972.29645,321.09583,971.0811Q324.23944,969.86584,326.71167,968.0336Q332.18622,963.31213,333.0714,961.17816Q342.92386,946.62476,331.7621,922.0694Q331.23917,947.79407,325.8166,954.6921Q322.94897,959.168,317.58273,960.75635Q312.2164,962.34467,303.52808,960.09393Q296.8798,958.29865,288.2763,954.2438Q284.92993,953.32043,258.9555,938.02246Q232.13672,921.7488,172.91408,879.8031"/>
</g>
<g style="fill:rgb(0,0,0); fill-opacity:1.0; stroke-linejoin: miter">
<path d="M234.32787,915.58215L244.36093,917.3216Q275.15274,922.9496,299.7108,924.88873L307.31958,925.19354L314.23572,925.08844L320.37262,924.5223L325.64374,923.4437L329.96243,921.80164L331.19366,921.11017Q339.0878,916.4889,337.68924,903.7781Q337.3501,895.24445,325.85553,868.99854Q330.934,887.2749,329.7386,897.69086Q327.89893,908.61127,319.4056,912.4663L315.19382,914.203L310.23123,915.5543L304.58612,916.5554Q298.59973,917.38135,291.5213,917.64685Q274.0982,918.4507,234.32787,915.58215"/>
</g>
<g style="fill:rgb(0,0,0); fill-opacity:1.0; stroke-linejoin: miter">
<path d="M209.75893,891.4814L221.45453,891.0613Q274.29834,889.24524,294.35254,884.9945Q302.68393,883.40216,309.09293,881.13995L314.91452,878.67303L319.5613,875.79675L321.44708,874.1639Q329.47992,865.51306,325.11996,852.54395Q324.24997,848.80585,319.64148,839.52313Q317.13336,834.2382,306.33008,817.241Q315.5375,837.0027,315.35083,846.8597Q315.4626,852.8029,312.575,858.05475Q308.06906,864.41284,305.97632,865.4098Q301.92477,868.49677,296.0425,871.16174L289.7858,873.74036Q283.11295,876.2231,275.10873,878.3989Q255.43095,883.9152,209.75893,891.4814"/>
</g>
<g style="fill:rgb(0,0,0); fill-opacity:1.0; stroke-linejoin: miter">
<path d="M199.69684,870.66693L210.7085,866.4465Q244.57184,853.7504,270.97998,841.3661Q279.50662,837.2495,286.3765,833.2022L292.7287,829.1765Q298.6149,825.1703,302.22314,821.25934Q311.05878,810.9157,306.27362,801.14136Q302.07062,791.4218,285.46655,776.8379Q290.83032,795.9367,289.37903,806.236Q288.90207,810.363,287.38928,814.41724L285.55276,818.4488Q283.4249,822.4598,279.87274,826.37085Q276.27744,830.27893,271.25778,834.0869Q269.44394,836.0398,253.64162,845.3314Q237.2242,854.57983,199.69684,870.66693"/>
</g>
<g style="fill:rgb(0,0,0); fill-opacity:1.0; stroke-linejoin: miter">
<path d="M182.20697,851.39056L191.89276,846.0598Q221.67374,829.90247,244.9422,815.2317Q262.50854,803.4223,264.1404,801.48987Q269.34888,797.1811,272.5674,793.32654L274.69888,790.4491Q276.5116,787.6444,277.21228,785.0935Q278.53226,780.0104,276.38098,775.71954Q272.26547,767.8828,258.7281,759.0461Q266.1086,771.6613,265.71933,779.64087Q265.66858,782.80994,264.5683,786.20605L263.14005,789.67303Q261.4166,793.2039,258.2501,797.0469Q255.03986,800.8993,250.3865,805.06384Q248.76498,806.9936,233.83551,818.1178Q218.28293,829.3767,182.20697,851.39056"/>
</g>
<g style="fill:rgb(0,0,0); fill-opacity:1.0; stroke-linejoin: miter">
<path d="M137.63988,893.9773L139.12053,891.8332Q151.11049,874.643,153.07407,867.10767Q154.25345,863.30316,154.75905,859.47205L156.31181,842.0966Q157.15344,835.5739,157.65877,834.02826Q160.50311,823.83026,164.20737,818.7582Q170.33743,808.9634,184.57164,798.1426Q201.00276,785.56244,236.60925,764.6525Q185.09328,801.42664,174.14415,816.29816Q167.41042,824.0903,163.92972,835.7209Q163.43268,837.0323,162.53575,843.314L161.04376,862.7664Q160.42761,867.397,158.59908,871.6171Q155.30727,880.1825,137.63988,893.9773"/>
</g>
<g style="fill:rgb(0,0,0); fill-opacity:1.0; stroke-linejoin: miter">
<path d="M110.11342,859.7108L132.4546,886.4242Q97.05748,836.3198,58.039017,776.44183Q45.42659,758.7921,42.337482,755.3835Q31.16484,741.36835,18.050552,729.8057Q1.0118264,715.5588,-13.704462,709.6281Q-26.427547,703.3389,-47.81716,701.5773Q-67.90266,701.3341,-81.008896,708.8125Q-108.248436,724.12494,-136.74744,772.13293Q-118.65993,748.7427,-104.997665,735.37115Q-92.47972,723.49896,-82.302246,719.1979Q-65.33397,712.1983,-51.738686,712.88477Q-34.113594,713.6565,-23.02151,718.3097Q-1.0779217,725.57635,25.467136,752.97766Q41.894672,767.9609,110.11342,859.7108"/>
</g>
<g style="fill:rgb(0,0,0); fill-opacity:1.0; stroke-linejoin: miter">
<path d="M-126.21454,848.28766L-120.63031,848.99194Q-103.67297,850.9303,-88.55734,854.43787Q-76.47682,857.80035,-74.59276,858.92615Q-70.27468,860.7092,-66.51935,862.97174Q-62.78105,865.2488,-59.605522,868.0053Q-57.742775,869.1493,-51.08923,877.1358Q-44.67872,885.32935,-36.29106,902.76276Q-38.306023,881.94617,-42.492905,872.57214Q-44.095966,868.7713,-46.41609,865.4826L-48.960297,862.35394Q-51.706192,859.36926,-55.438057,857.0888Q-59.199806,854.8297,-63.947556,853.2747L-68.89696,851.86383Q-74.070465,850.6129,-79.96101,849.8742Q-94.50819,847.89923,-126.21454,848.28766"/>
</g>
<g style="fill:rgb(0,0,0); fill-opacity:1.0; stroke-linejoin: miter">
<path d="M-52.793602,776.638L-52.218544,778.672Q-50.99514,785.0002,-54.066925,790.13477Q-57.16977,795.27704,-63.334045,796.6833Q-69.32339,797.72345,-74.33994,794.3004Q-79.36501,790.8444,-80.944336,784.3185Q-82.16775,777.99036,-79.09596,772.8558Q-75.993126,767.7135,-69.82884,766.30725Q-63.839516,765.267,-58.822952,768.69006Q-57.210983,769.7999,-55.887756,771.3123L-54.65931,772.9136Q-53.514336,774.6096,-52.793602,776.638"/>
</g>
</g>
</svg>